<svg width="72" height="39" viewBox="0 0 72 39" fill="none" xmlns="http://www.w3.org/2000/svg">
<path d="M4.65 36.7C2.95 36.7 2.1 35.85 2.1 34.15C2.1 32.8167 2.73333 31.2667 4 29.5C6.46667 26 10.05 23.0833 14.75 20.75C15.2833 18.3833 15.55 16.1333 15.55 14C15.55 13.2333 15.5167 12.5167 15.45 11.85C15.0833 8.18333 13.5833 6.35 10.95 6.35C10.1167 6.35 9.35 6.51667 8.65 6.85C8.51667 6.91667 8.43333 6.88333 8.4 6.75C8.33333 6.61667 8.36667 6.53333 8.5 6.5C9.3 6.13333 10.1333 5.95 11 5.95C14.0333 5.95 15.75 7.9 16.15 11.8C16.2167 12.2 16.25 12.6167 16.25 13.05C16.25 13.45 16.25 13.8667 16.25 14.3C16.25 15.2667 16.2 16.25 16.1 17.25C16 18.25 15.8333 19.2833 15.6 20.35C16.3 20.0167 17 19.7167 17.7 19.45C17.8667 18.45 18 17.5 18.1 16.6C18.2 15.7 18.25 14.8333 18.25 14C18.25 12.1667 18.0167 10.55 17.55 9.15C16.5833 6.35 14.7167 4.95 11.95 4.95C9.28333 4.95 6.93333 6.05 4.9 8.25C2.83333 10.4167 1.8 12.8 1.8 15.4C1.8 18.2333 3.01667 19.65 5.45 19.65C6.61667 19.65 7.81667 19.2333 9.05 18.4C10.15 17.7 11.0833 16.7833 11.85 15.65C11.8833 15.5167 11.95 15.45 12.05 15.45C12.1167 15.5167 12.15 15.5667 12.15 15.6L12.05 15.9C11.35 17.0667 10.2833 18.1167 8.85 19.05C7.28333 20.05 5.91667 20.55 4.75 20.55C3.35 20.55 2.31667 20.1 1.65 19.2C0.983333 18.3 0.65 17.15 0.65 15.75C0.65 14.25 0.983333 12.75 1.65 11.25C2.55 9.21667 4.06667 7.53333 6.2 6.2C8.36667 4.83333 10.55 4.15 12.75 4.15C17.9167 4.15 20.5 6.88333 20.5 12.35C20.5 14.2167 20.2 16.3667 19.6 18.8C20.5667 18.5333 21.5833 18.3167 22.65 18.15C23.75 17.9833 24.9333 17.8833 26.2 17.85C26.1 15.75 26.2833 13.6 26.75 11.4C27.2833 8.96667 28.0833 7.41667 29.15 6.75C29.4833 6.58333 29.75 6.5 29.95 6.5C30.85 6.5 31.3 7.08333 31.3 8.25C31.3 9.85 30.3167 12.3333 28.35 15.7L28.4 16.45C28.4 16.65 28.4167 16.8667 28.45 17.1C28.4833 17.3333 28.5167 17.5833 28.55 17.85C32.0167 18.05 34.7833 18.8667 36.85 20.3C40.8167 15.0667 42.8 10.2833 42.8 5.95C42.8 3.31667 41.4833 1.58333 38.85 0.749998C38.55 0.616664 38.4 0.466664 38.4 0.299998C38.4 0.0999985 38.5 0.0333317 38.7 0.0999975L39.3 0.199999C43.1667 1.46667 45.1 3.61667 45.1 6.65C45.1 10.0167 42.5667 14.7333 37.5 20.8C39.1333 22.1333 39.95 23.6333 39.95 25.3C39.95 26.3 39.5333 27.1833 38.7 27.95C37.9 28.6833 37 29.05 36 29.05C35.1 29.05 34.3667 28.6667 33.8 27.9C33.7333 27.7667 33.75 27.6833 33.85 27.65C34.0167 27.5833 34.1167 27.6 34.15 27.7C34.5833 28.3333 35.2167 28.65 36.05 28.65C36.9167 28.65 37.7167 28.3333 38.45 27.7C39.1833 27.0667 39.55 26.3 39.55 25.4C39.55 23.8667 38.7333 22.4833 37.1 21.25C35.8667 22.5833 34.5333 24.0833 33.1 25.75C31.7 27.3833 30.1667 29.2 28.5 31.2C28.4667 31.3333 28.3833 31.4 28.25 31.4C28.0167 31.4 27.9 30.8167 27.9 29.65C27.9 28.4833 27.6833 26.7833 27.25 24.55C26.6833 21.85 26.3833 20.15 26.35 19.45C25.0833 21.3833 23.4667 23.6 21.5 26.1C20.2667 27.6333 19.1333 28.95 18.1 30.05C17.0667 31.15 16.1167 32.0667 15.25 32.8C14.6167 33.3333 14.1167 33.6 13.75 33.6C13.5167 33.6 13.4 33.4833 13.4 33.25L13.5 32.75C14.4667 30.35 15.3 28.1 16 26C16.7 23.8667 17.2333 21.85 17.6 19.95C17.2333 20.0833 16.8833 20.2167 16.55 20.35C16.2167 20.4833 15.8667 20.6333 15.5 20.8C14.4 25.6333 12.6333 29.7333 10.2 33.1C8.5 35.5 6.65 36.7 4.65 36.7ZM28.25 14.75C29.7833 11.7167 30.55 9.48333 30.55 8.05C30.55 7.31667 30.35 6.95 29.95 6.95C29.5167 6.95 29.1333 7.36667 28.8 8.2C28.3667 9.1 28.15 10.3 28.15 11.8C28.15 12.7 28.1833 13.6833 28.25 14.75ZM14.35 32.45C14.65 32.4167 14.95 32.25 15.25 31.95C20.2833 27.0167 23.95 22.55 26.25 18.55V18.5C23.65 18.5667 21.3833 18.8667 19.45 19.4C18.35 23.5667 16.65 27.9167 14.35 32.45ZM28.75 30C29.0167 29.6 29.4333 29.0667 30 28.4C30.5667 27.7333 31.2667 26.9167 32.1 25.95L34.65 22.95C35.4167 22.05 36.0167 21.3333 36.45 20.8C34.45 19.5 31.8333 18.75 28.6 18.55C28.6667 19.2833 28.75 19.9833 28.85 20.65C28.95 21.3167 29.0333 21.9833 29.1 22.65C29.1667 23.25 29.2167 23.8333 29.25 24.4C29.3167 24.9333 29.35 25.45 29.35 25.95C29.35 27.4833 29.15 28.8333 28.75 30ZM5 36.15C6.7 36.15 8.33333 35.05 9.9 32.85C11.9333 30.05 13.5167 26.1667 14.65 21.2C10.4833 23.2667 7.21667 25.95 4.85 29.25C3.58333 31.0833 2.95 32.65 2.95 33.95C2.95 35.4167 3.63333 36.15 5 36.15ZM53.6203 38.9C50.387 38.9 48.6536 36.9 48.4203 32.9C44.787 32.3667 42.9703 30.6667 42.9703 27.8C42.9703 26 43.6536 24.45 45.0203 23.15C42.987 21.25 41.9703 18.8833 41.9703 16.05C41.9703 13.35 42.987 10.8833 45.0203 8.65C47.887 5.48333 51.4203 4.05 55.6203 4.35C57.587 2.81667 59.9203 2.05 62.6203 2.05C65.3536 2.05 67.3036 2.85 68.4703 4.45C68.937 3.95 69.3703 3.53333 69.7703 3.2C70.2036 2.83333 70.587 2.53333 70.9203 2.3C71.3536 2.06666 71.5703 2.1 71.5703 2.4C71.5703 2.5 71.487 2.6 71.3203 2.7C70.887 2.96667 70.4703 3.28333 70.0703 3.65C69.6703 4.01667 69.2536 4.43333 68.8203 4.9C69.1536 5.46667 69.3203 6.1 69.3203 6.8C69.3203 7.26667 69.187 7.8 68.9203 8.4C68.387 9.53333 67.5203 10.1 66.3203 10.1C65.6203 10.1 65.2703 9.75 65.2703 9.05C65.2703 8.88333 65.3036 8.66667 65.3703 8.4C65.6703 7.43333 66.4536 6.38333 67.7203 5.25C67.0536 3.58333 65.437 2.75 62.8703 2.75C60.6703 2.75 58.8036 3.36667 57.2703 4.6C59.937 5.26667 61.7203 6.61667 62.6203 8.65C62.6536 8.75 62.6203 8.83333 62.5203 8.9C62.387 8.93333 62.3036 8.91667 62.2703 8.85C61.337 6.75 59.5703 5.43333 56.9703 4.9C55.937 5.8 55.4203 6.81667 55.4203 7.95C55.4203 9.55 56.6536 11.2833 59.1203 13.15C60.587 12.2833 61.887 11.85 63.0203 11.85C65.1536 11.85 66.2203 13.0167 66.2203 15.35C66.2203 16.35 65.937 17.45 65.3703 18.65C66.4036 20.0167 66.9203 21.4333 66.9203 22.9C66.9203 25.1 65.837 27.0833 63.6703 28.85C61.4703 30.65 58.6703 31.8667 55.2703 32.5C53.037 32.9667 51.0703 33.1333 49.3703 33C49.7703 36.4667 51.387 38.2 54.2203 38.2C55.487 38.2 56.6703 37.8 57.7703 37C58.9036 36.2 59.5536 35.25 59.7203 34.15C59.7203 34.0167 59.787 33.95 59.9203 33.95C60.0536 33.9833 60.1203 34.0667 60.1203 34.2C59.9203 35.4667 59.1536 36.5667 57.8203 37.5C56.5536 38.4333 55.1536 38.9 53.6203 38.9ZM45.3703 22.85C47.237 21.2833 49.6703 20.1833 52.6703 19.55C54.0036 17.5167 55.537 15.8167 57.2703 14.45C56.837 14.1167 56.4536 13.8333 56.1203 13.6C55.8203 13.3333 55.5536 13.1 55.3203 12.9C53.8536 11.5333 53.1203 10.1167 53.1203 8.65C53.1203 7.21667 53.8203 5.9 55.2203 4.7C51.587 4.6 48.4703 5.98333 45.8703 8.85C43.8036 11.1167 42.7703 13.6333 42.7703 16.4C42.7703 18.9667 43.637 21.1167 45.3703 22.85ZM66.5703 9.6C67.0036 9.6 67.387 9.33333 67.7203 8.8C68.087 8.23333 68.2703 7.65 68.2703 7.05C68.2703 6.71667 68.187 6.3 68.0203 5.8C67.5536 6.36667 67.1703 6.91667 66.8703 7.45C66.6036 7.95 66.4036 8.43333 66.2703 8.9C66.2703 8.93333 66.2536 8.98333 66.2203 9.05C66.2203 9.08333 66.2203 9.13333 66.2203 9.2C66.2203 9.46667 66.337 9.6 66.5703 9.6ZM64.8703 18.05C65.337 16.95 65.5703 15.9833 65.5703 15.15C65.5703 13.2167 64.687 12.25 62.9203 12.25C61.9536 12.25 60.8036 12.6333 59.4703 13.4L61.2703 14.7C61.5036 14.8667 61.687 15.0333 61.8203 15.2C61.987 15.3333 62.1203 15.4333 62.2203 15.5C63.3536 16.4333 64.237 17.2833 64.8703 18.05ZM52.6703 25.5C54.437 25.5 56.0703 25.1833 57.5703 24.55C59.0703 23.8833 60.4703 23 61.7703 21.9C62.4036 21.3667 62.987 20.7833 63.5203 20.15C62.7536 18.75 60.787 16.9167 57.6203 14.65C55.9203 16.0167 54.4536 17.6 53.2203 19.4C53.687 19.3333 54.1203 19.2833 54.5203 19.25C54.9536 19.2167 55.337 19.2 55.6703 19.2C55.9036 19.2 56.1203 19.2 56.3203 19.2C56.5203 19.2 56.7036 19.2167 56.8703 19.25C57.2036 19.2833 57.3703 19.45 57.3703 19.75C57.3703 19.95 57.2536 20.0333 57.0203 20C56.487 19.9 55.9203 19.85 55.3203 19.85C54.9203 19.85 54.5036 19.8833 54.0703 19.95C53.6703 19.9833 53.237 20.0333 52.7703 20.1C52.2703 20.9333 51.8203 21.7833 51.4203 22.65C51.0203 23.5167 50.6536 24.4 50.3203 25.3L51.2203 25.4C51.487 25.4333 51.737 25.4667 51.9703 25.5C52.2036 25.5 52.437 25.5 52.6703 25.5ZM49.7203 25.2C50.0536 24.3333 50.4203 23.5 50.8203 22.7C51.2536 21.8667 51.7203 21.0333 52.2203 20.2C49.4536 20.8 47.387 21.8833 46.0203 23.45C47.087 24.3167 48.3203 24.9 49.7203 25.2ZM51.2703 32.15C51.8703 32.15 52.487 32.1 53.1203 32C53.787 31.9 54.487 31.7667 55.2203 31.6C58.0536 30.9333 60.2703 29.8333 61.8703 28.3C63.5036 26.7667 64.3203 25.0833 64.3203 23.25C64.3203 22.4167 64.1536 21.6167 63.8203 20.85C63.587 21.1167 63.3536 21.3667 63.1203 21.6C62.887 21.8 62.637 22.0167 62.3703 22.25C59.4036 24.7833 55.6703 25.95 51.1703 25.75C50.8703 25.75 50.5536 25.7167 50.2203 25.65C49.5203 27.75 49.2036 29.85 49.2703 31.95C49.6036 31.9833 49.937 32.0167 50.2703 32.05C50.6036 32.1167 50.937 32.15 51.2703 32.15ZM48.3703 31.75C48.4036 29.7167 48.8036 27.65 49.5703 25.55C48.1703 25.25 46.887 24.6667 45.7203 23.8C44.887 24.8333 44.4703 26 44.4703 27.3C44.4703 29.5333 45.7703 31.0167 48.3703 31.75Z" fill="white"/>
</svg>
